<?xml version="1.0" encoding="UTF-8" standalone="no"?>
<!-- Creator: CorelDRAW X6 -->

<svg
   xmlns:dc="http://purl.org/dc/elements/1.1/"
   xmlns:cc="http://creativecommons.org/ns#"
   xmlns:rdf="http://www.w3.org/1999/02/22-rdf-syntax-ns#"
   xmlns:svg="http://www.w3.org/2000/svg"
   xmlns="http://www.w3.org/2000/svg"
   xmlns:sodipodi="http://sodipodi.sourceforge.net/DTD/sodipodi-0.dtd"
   xmlns:inkscape="http://www.inkscape.org/namespaces/inkscape"
   xml:space="preserve"
   width="374.54453"
   height="184.43643"
   version="1.1"
   viewBox="0 0 5278.948 2600.0082"
   id="svg2"
   inkscape:version="0.91 r13725"
   sodipodi:docname="embrapa.svg"
   style="clip-rule:evenodd;fill-rule:evenodd;image-rendering:optimizeQuality;shape-rendering:geometricPrecision;text-rendering:geometricPrecision"><title
     id="title4150">Embrapa</title><metadata
     id="metadata15"><rdf:RDF><cc:Work
         rdf:about=""><dc:format>image/svg+xml</dc:format><dc:type
           rdf:resource="http://purl.org/dc/dcmitype/StillImage" /><dc:title>Embrapa</dc:title><cc:license
           rdf:resource="http://creativecommons.org/publicdomain/zero/1.0/" /><dc:date>2015-11-19 17:50:00</dc:date><dc:creator><cc:Agent><dc:title>Pablo Busatto Figueiredo</dc:title></cc:Agent></dc:creator><dc:rights><cc:Agent><dc:title>Pablo Busatto Figueiredo</dc:title></cc:Agent></dc:rights><dc:publisher><cc:Agent><dc:title></dc:title></cc:Agent></dc:publisher><dc:subject><rdf:Bag><rdf:li>Embrapa; logo</rdf:li></rdf:Bag></dc:subject><dc:description>logo of Embrapa</dc:description></cc:Work><cc:License
         rdf:about="http://creativecommons.org/publicdomain/zero/1.0/"><cc:permits
           rdf:resource="http://creativecommons.org/ns#Reproduction" /><cc:permits
           rdf:resource="http://creativecommons.org/ns#Distribution" /><cc:permits
           rdf:resource="http://creativecommons.org/ns#DerivativeWorks" /></cc:License></rdf:RDF></metadata><defs
     id="defs13" /><sodipodi:namedview
     pagecolor="#ffffff"
     bordercolor="#666666"
     borderopacity="1"
     objecttolerance="10"
     gridtolerance="10"
     guidetolerance="10"
     inkscape:pageopacity="0"
     inkscape:pageshadow="2"
     inkscape:window-width="1671"
     inkscape:window-height="847"
     id="namedview11"
     showgrid="false"
     inkscape:zoom="1.206164"
     inkscape:cx="70.731721"
     inkscape:cy="50.945728"
     inkscape:window-x="0"
     inkscape:window-y="0"
     inkscape:window-maximized="0"
     inkscape:current-layer="svg2"
     fit-margin-top="38.519"
     fit-margin-left="38.519"
     fit-margin-right="38.519"
     fit-margin-bottom="38.519"
     units="px" /><g
     id="g4169"
     transform="translate(541.22573,545.00413)"><path
       style="fill:#378254"
       inkscape:connector-curvature="0"
       id="folha"
       d="m 1606,574 62,-289 191,0 -58,276 c 49,-49 107,-62 165,-67 18,0 231,-18 169,262 -18,89 -53,245 -267,262 -27,9 -133,0 -142,-85 -13,27 -22,49 -27,76 36,298 285,476 503,503 329,0 654,-4 983,-4 L 3034,814 c -13,67 -31,102 -31,200 l -187,0 9,-76 c -71,107 -329,129 -329,-36 4,-13 -9,-240 387,-214 9,-40 27,-102 -36,-107 -27,-4 -71,9 -85,76 l -182,0 c 13,-71 80,-156 236,-165 62,-4 111,0 156,9 C 2959,368 2812,21 2420,-2 l -939,0 125,574 z m 805,-71 -196,0 c -18,156 -67,343 -98,512 l 187,0 58,-245 c 22,-133 173,-116 196,-116 l 36,-160 c -40,0 -134,-13 -200,111 l 18,-102 z m -525,102 c -31,0 -58,13 -80,36 -45,58 -62,147 -58,205 9,44 31,71 58,67 40,0 53,-9 71,-27 76,-71 76,-187 71,-218 0,-13 -4,-67 -62,-62 z m 974,160 c -49,0 -160,0 -174,93 0,27 22,53 49,53 98,4 116,-102 125,-147 z" /><path
       style="fill:#385b9b"
       inkscape:connector-curvature="0"
       id="Embrapa"
       d="m 3808,845 c 4,-31 31,-53 62,-67 27,-13 71,-9 111,-9 -13,67 -40,147 -125,147 -36,0 -62,-31 -49,-71 z m 316,169 c 4,-62 4,-85 9,-107 l 58,-262 c 27,-116 -89,-160 -196,-160 -58,0 -125,9 -182,31 -58,22 -107,71 -120,138 l 182,0 c 9,-31 31,-76 80,-76 80,-4 58,62 45,107 l -62,0 c -165,0 -294,49 -325,174 -22,102 27,169 147,169 98,0 151,-44 187,-85 l 0,0 c -9,40 -13,53 -13,71 l 191,0 z m -845,-512 -196,0 -156,707 196,0 58,-258 0,0 c 27,44 71,76 129,76 169,0 276,-125 302,-276 31,-133 -9,-267 -160,-267 -76,0 -134,31 -187,89 l -4,0 18,-71 z m 76,98 c 80,0 71,93 58,156 -13,67 -44,160 -129,160 -80,0 -76,-93 -58,-160 13,-62 44,-156 129,-156 z m -2789,414 31,-142 -365,0 36,-156 334,0 31,-142 -329,0 31,-151 360,0 31,-147 -565,0 -160,738 565,0 z m 334,-512 -196,0 c -9,58 -9,85 -18,129 l -85,383 196,0 62,-289 c 0,-9 9,-116 107,-116 62,0 62,58 53,107 l -67,298 196,0 67,-289 c 0,-9 9,-116 107,-116 62,0 62,58 53,107 l -67,298 196,0 76,-338 c 22,-116 -45,-191 -156,-191 -76,4 -151,40 -205,102 -4,-62 -71,-98 -129,-98 -85,0 -156,27 -209,98 l 0,0 18,-85 z" /></g><g
     inkscape:groupmode="layer"
     id="layer1"
     inkscape:label="Layer 1"
     transform="translate(541.22573,545.00413)" /></svg>